# xmcd
#
# Track frame offsets: 
#        182
#        20275
#        36347
#        45360
#        66695
#        85055
#        101720
#        138700
#        164507
#        213332
#        259075
#        326962
#
# Disc length: 4767 seconds
#
# Revision: 0
# Processed by: cddbd v1.5.2PL0 Copyright (c) Steve Scherf et al.
# Submitted via: ExactAudioCopy v0.95b4
#
DISCID=b2129d0c
DTITLE=The Grateful Dead - Aoxomoxoa [Bonus Tracks]
DYEAR=2003
DGENRE=Rock
TTITLE0=Dupree's Diamond Blues
TTITLE1=Rosemary
TTITLE2=Doin' That Rag
TTITLE3=Mountains of the Moon
TTITLE4=Mountains of the Moon
TTITLE5=China Cat Sunflower
TTITLE6=What's Become of the Baby
TTITLE7=Cosmic Charlie
TTITLE8=Clementine Jam [*]
TTITLE9=Nobody's Spoonful Jam [*]
TTITLE10=The Eleven Jam [*]
TTITLE11=Cosmic Charlie [Live][*]
EXTD=
EXTT0=
EXTT1=
EXTT2=
EXTT3=
EXTT4=
EXTT5=
EXTT6=
EXTT7=
EXTT8=
EXTT9=
EXTT10=
EXTT11=
PLAYORDER=
